{"title":"BBC Natural World 2011/2012 E03 Heligan: Secrets of the Lost Gar","uid":6613290,"size":1117761473,"categoryP":"video","categoryS":"hd___tv_shows","magnet":"?xt=urn:btih:9f7f2e0d7b3eb1cec2cf712bc9ca465cfe3ed5f8&amp;dn=BBC+Natural+World+2011%2F2012+E03+Heligan%3A+Secrets+of+the+Lost+Gar&amp;tr=udp%3A%2F%2Ftracker.openbittorrent.com%3A80&amp;tr=udp%3A%2F%2Fopen.demonii.com%3A1337&amp;tr=udp%3A%2F%2Ftracker.coppersurfer.tk%3A6969&amp;tr=udp%3A%2F%2Fexodus.desync.com%3A6969","seeders":0,"leechers":1,"uploader":"aularon","files":-1,"time":1313675587,"description":"BBC Natural World 2011/2012 E03 Heligan: Secrets of the Lost Gardens 720p x264 aac mp4 subtitles [aularon]\n\n- - -\nSynopsis\n- - -\nLooking at the secret lives of the wildlife in one of Britain's favourite gardens. Shot by Charlie Hamilton-James, this film follows various animals, from the family of foxes that play after hours in the pleasure gardens, to the toads in the Italian garden and the badgers that clear up the tea rooms at night. Set against the background of the gardening year, these stories reveal life behind the scenes at Heligan.\n\n\n- - -\nURL\n- - -\n &lt;a href=&quot;\nhttp://www.bbc.co.uk/programmes/b013nhmg&quot; rel=&quot;nofollow&quot; target=&quot;_NEW&quot;&gt;\nhttp://www.bbc.co.uk/programmes/b013nhmg&lt;/a&gt;\n\n\n- - -\nTechnical Details\n- - -\nGeneral\nComplete name                    : BBC.Natural.World.2011.2012.E03.Heligan.Secrets.of.the.Lost.Gardens/Natural_World_-_2011-2012_Heligan_3._Secrets_of_the_Lost_Gardens_b013nhmg_default.mp4\nFormat                           : MPEG-4\nFormat profile                   : Base Media\nCodec ID                         : isom\nFile size                        : 1.04 GiB\nDuration                         : 58mn 47s\nOverall bit rate                 : 2 535 Kbps\nMovie name                       : Natural World: 2011-2012: Heligan: Secrets of the Lost Gardens\nAlbum                            : Natural World\nTrack name/Position              : 3\nTrack name/Total                 : 0\nPerformer                        : Natural World\nGenre                            : Factual,Science &amp; Nature,Lifestyle &amp; Leisure,Pets &amp; Animals\nRecorded date                    : 2011-08-17T20:00:00+01:00\nWriting application              : Lavf53.6.0\nCover                            : Yes\nComment                          : Recorded using get_iplayer, by Aularon.\nrtng                             : 2\nstik                             : 1\ndesc                             : Looking at the secret lives of the wildlife in one of Britain's favourite gardens, from the family of foxes that play after hours to the toads in the Italian garden.\ntvnn                             : BBC HD\ntvsh                             : Natural World\ntven                             : b013nhmg\ncatg                             : Factual,Science &amp; Nature,Lifestyle &amp; Leisure,Pets &amp; Animals\ntves                             : 3\n\nVideo\nID                               : 1\nFormat                           : AVC\nFormat/Info                      : Advanced Video Codec\nFormat profile                   : &lt;a class=&quot;__cf_email__&quot; href=&quot;/cdn-cgi/l/email-protection&quot; data-cfemail=&quot;a3ebcac4cbe3ef978d92&quot;&gt;[email&amp;#160;protected]&lt;/a&gt;&lt;script cf-hash='f9e31' type=&quot;text/javascript&quot;&gt;\n/* &lt;![CDATA[ */!function(){try{var t=&quot;currentScript&quot;in document?document.currentScript:function(){for(var t=document.getElementsByTagName(&quot;script&quot;),e=t.length;e--;)if(t[e].getAttribute(&quot;cf-hash&quot;))return t[e]}();if(t&amp;&amp;t.previousSibling){var e,r,n,i,c=t.previousSibling,a=c.getAttribute(&quot;data-cfemail&quot;);if(a){for(e=&quot;&quot;,r=parseInt(a.substr(0,2),16),n=2;a.length-n;n+=2)i=parseInt(a.substr(n,2),16)^r,e+=String.fromCharCode(i);e=document.createTextNode(e),c.parentNode.replaceChild(e,c)}}}catch(u){}}();/* ]]&gt; */&lt;/script&gt;\nFormat settings, CABAC           : Yes\nFormat settings, ReFrames        : 6 frames\nCodec ID                         : avc1\nCodec ID/Info                    : Advanced Video Coding\nDuration                         : 58mn 47s\nBit rate mode                    : Variable\nBit rate                         : 2 434 Kbps\nMaximum bit rate                 : 3 500 Kbps\nWidth                            : 1 280 pixels\nHeight                           : 720 pixels\nDisplay aspect ratio             : 16:9\nFrame rate mode                  : Constant\nFrame rate                       : 25.000 fps\nStandard                         : PAL\nColor space                      : YUV\nChroma subsampling               : 4:2:0\nBit depth                        : 8 bits\nScan type                        : Progressive\nBits/(Pixel*Frame)               : 0.106\nStream size                      : 1 024 MiB (96%)\n\nAudio\nID                               : 2\nFormat                           : AAC\nFormat/Info                      : Advanced Audio Codec\nFormat profile                   : HE-AAC / LC\nCodec ID                         : 40\nDuration                         : 58mn 47s\nBit rate mode                    : Constant\nBit rate                         : 96.0 Kbps\nChannel(s)                       : 2 channels\nChannel positions                : Front: L R\nSampling rate                    : 48.0 KHz / 24.0 KHz\nCompression mode                 : Lossy\nStream size                      : 39.8 MiB (4%)\n","torrent":{"xt":"urn:btih:9f7f2e0d7b3eb1cec2cf712bc9ca465cfe3ed5f8","amp;dn":"BBC+Natural+World+2011%2F2012+E03+Heligan%3A+Secrets+of+the+Lost+Gar","amp;tr":["udp%3A%2F%2Ftracker.openbittorrent.com%3A80","udp%3A%2F%2Fopen.demonii.com%3A1337","udp%3A%2F%2Ftracker.coppersurfer.tk%3A6969","udp%3A%2F%2Fexodus.desync.com%3A6969"],"infoHash":"9f7f2e0d7b3eb1cec2cf712bc9ca465cfe3ed5f8","infoHashBuffer":{"type":"Buffer","data":[159,127,46,13,123,62,177,206,194,207,113,43,201,202,70,92,254,62,213,248]},"announce":[],"urlList":[]}}